STARTFONT 2.1
FONT -FontForge-Big Shoulders Display Thin-Light-R-Normal--50-480-75-75-P-136-ISO10646-1
SIZE 48 75 75
FONTBOUNDINGBOX 34 56 -3 -10
COMMENT "Generated by fontforge, http://fontforge.sourceforge.net"
COMMENT "Copyright 2019 The Big Shoulders Project Authors (https://github.com/xotypeco/big_shoulders)"
STARTPROPERTIES 39
FOUNDRY "FontForge"
FAMILY_NAME "Big Shoulders Display Thin"
WEIGHT_NAME "Light"
SLANT "R"
SETWIDTH_NAME "Normal"
ADD_STYLE_NAME ""
PIXEL_SIZE 50
POINT_SIZE 480
RESOLUTION_X 75
RESOLUTION_Y 75
SPACING "P"
AVERAGE_WIDTH 136
CHARSET_REGISTRY "ISO10646"
CHARSET_ENCODING "1"
FONTNAME_REGISTRY ""
CHARSET_COLLECTIONS "ISO10646-1"
FONT_NAME "BigShouldersDisplay-Thin"
FACE_NAME "Big Shoulders Display Thin"
COPYRIGHT "Copyright 2019 The Big Shoulders Project Authors (https://github.com/xotypeco/big_shoulders)"
FONT_VERSION "2.002"
FONT_ASCENT 40
FONT_DESCENT 10
UNDERLINE_POSITION -2
UNDERLINE_THICKNESS 1
X_HEIGHT 29
CAP_HEIGHT 39
RAW_ASCENT 800
RAW_DESCENT 200
NORM_SPACE 10
RELATIVE_WEIGHT 25
RELATIVE_SETWIDTH 50
SUPERSCRIPT_X 0
SUPERSCRIPT_Y 17
SUPERSCRIPT_SIZE 30
SUBSCRIPT_X 0
SUBSCRIPT_Y 3
SUBSCRIPT_SIZE 30
AVG_LOWERCASE_WIDTH 128
AVG_UPPERCASE_WIDTH 134
ENDPROPERTIES
CHARS 98
STARTCHAR space
ENCODING 32
SWIDTH 200 0
DWIDTH 10 0
BBX 1 1 0 0
BITMAP
00
ENDCHAR
STARTCHAR exclam
ENCODING 33
SWIDTH 180 0
DWIDTH 9 0
BBX 5 40 1 0
BITMAP
20
20
20
20
20
20
20
20
20
20
20
20
20
20
20
20
20
20
20
20
20
20
20
20
20
20
20
20
20
20
20
20
20
20
00
00
00
F8
F8
F8
ENDCHAR
STARTCHAR quotedbl
ENCODING 34
SWIDTH 195 0
DWIDTH 10 0
BBX 5 8 2 32
BITMAP
C8
C8
C8
C8
48
48
48
48
ENDCHAR
STARTCHAR numbersign
ENCODING 35
SWIDTH 464 0
DWIDTH 23 0
BBX 21 40 1 0
BITMAP
000408
000410
000810
000810
000820
001020
001020
001040
001040
002040
002080
002080
004080
004108
07FFF0
008100
008200
008200
010200
010200
010400
020400
020400
020800
040800
040800
041000
081000
7FFF00
882000
102000
102000
104000
104000
204000
208000
208000
408000
410000
C10000
ENDCHAR
STARTCHAR dollar
ENCODING 36
SWIDTH 256 0
DWIDTH 13 0
BBX 9 48 2 -4
BITMAP
0800
0800
0800
0800
7E00
4100
8100
8080
8080
8080
8080
8080
8080
8080
8080
8080
8080
8000
8000
8000
8000
8000
4000
7000
1E00
0300
0100
0080
0080
0080
8080
8080
8080
8080
8080
8080
8080
8080
8080
8080
8080
8180
4100
3E00
0800
0800
0800
0800
ENDCHAR
STARTCHAR percent
ENCODING 37
SWIDTH 394 0
DWIDTH 20 0
BBX 14 40 3 0
BITMAP
7004
8808
8808
8808
8810
8810
8810
8820
8820
8820
8840
8840
8840
8880
8880
8880
8900
7900
0100
0100
0200
0200
0278
0448
0444
0444
0844
0844
0844
1044
1044
1044
2044
2044
2044
4044
4044
4044
8048
8078
ENDCHAR
STARTCHAR ampersand
ENCODING 38
SWIDTH 385 0
DWIDTH 19 0
BBX 13 40 3 0
BITMAP
7E00
4100
8100
8080
8080
8080
8180
8100
8100
8100
C100
4200
4200
4200
4400
2400
2800
2800
1000
1000
3080
2880
6880
4880
4480
4480
4280
8240
8340
8140
8140
80C0
80C0
8040
8040
80E0
80B0
4090
4088
3F08
ENDCHAR
STARTCHAR quotesingle
ENCODING 39
SWIDTH 125 0
DWIDTH 6 0
BBX 2 8 2 32
BITMAP
C0
C0
C0
C0
40
40
40
40
ENDCHAR
STARTCHAR parenleft
ENCODING 40
SWIDTH 200 0
DWIDTH 10 0
BBX 8 50 1 -10
BITMAP
03
02
04
04
08
08
08
10
10
10
20
20
20
20
60
40
40
40
40
40
40
40
40
C0
C0
C0
40
40
40
40
40
40
40
40
40
40
20
20
20
20
10
10
10
08
08
08
04
04
02
03
ENDCHAR
STARTCHAR parenright
ENCODING 41
SWIDTH 200 0
DWIDTH 10 0
BBX 8 50 1 -10
BITMAP
C0
40
20
20
10
10
10
08
08
08
04
04
04
04
04
02
02
02
02
02
02
02
02
02
02
03
02
02
02
02
02
02
02
02
02
06
04
04
04
04
08
08
08
10
10
10
20
20
40
C0
ENDCHAR
STARTCHAR asterisk
ENCODING 42
SWIDTH 248 0
DWIDTH 12 0
BBX 10 11 1 29
BITMAP
0400
0400
8440
6580
1E00
0E00
3500
C4C0
0400
0400
0400
ENDCHAR
STARTCHAR plus
ENCODING 43
SWIDTH 386 0
DWIDTH 19 0
BBX 13 13 3 14
BITMAP
0200
0200
0200
0200
0200
0200
FFF8
0200
0200
0200
0200
0200
0200
ENDCHAR
STARTCHAR comma
ENCODING 44
SWIDTH 180 0
DWIDTH 9 0
BBX 5 7 2 -4
BITMAP
F8
F8
F8
10
10
30
20
ENDCHAR
STARTCHAR hyphen
ENCODING 45
SWIDTH 246 0
DWIDTH 12 0
BBX 10 2 1 19
BITMAP
FFC0
FFC0
ENDCHAR
STARTCHAR period
ENCODING 46
SWIDTH 140 0
DWIDTH 7 0
BBX 5 3 1 0
BITMAP
F8
F8
F8
ENDCHAR
STARTCHAR slash
ENCODING 47
SWIDTH 280 0
DWIDTH 14 0
BBX 12 50 1 -10
BITMAP
0030
0020
0020
0020
0020
0040
0040
0040
0040
0040
0080
0080
0080
0080
0080
0100
0100
0100
0100
0100
0200
0200
0200
0200
0200
0400
0400
0400
0400
0400
0800
0800
0800
0800
0800
1000
1000
1000
1000
1000
2000
2000
2000
2000
2000
4000
4000
4000
4000
C000
ENDCHAR
STARTCHAR zero
ENCODING 48
SWIDTH 298 0
DWIDTH 15 0
BBX 9 40 3 0
BITMAP
3E00
4100
8180
8080
8080
8080
8080
8080
8080
8080
8080
8080
8080
8080
8080
8080
8080
8080
8080
8080
8080
8080
8080
8080
8080
8080
8080
8080
8080
8080
8080
8080
8080
8080
8080
8080
8080
8180
4100
3E00
ENDCHAR
STARTCHAR one
ENCODING 49
SWIDTH 158 0
DWIDTH 8 0
BBX 3 40 2 0
BITMAP
60
E0
20
20
20
20
20
20
20
20
20
20
20
20
20
20
20
20
20
20
20
20
20
20
20
20
20
20
20
20
20
20
20
20
20
20
20
20
20
20
ENDCHAR
STARTCHAR two
ENCODING 50
SWIDTH 309 0
DWIDTH 15 0
BBX 9 40 3 0
BITMAP
3F00
4180
8080
8080
8080
8080
8080
8080
8080
8080
8080
8080
8080
0080
0080
0080
0080
0100
0300
0200
0400
0800
1000
2000
2000
4000
4000
4000
C000
8000
8000
8000
8000
8000
8000
8000
8000
8000
8000
FF80
ENDCHAR
STARTCHAR three
ENCODING 51
SWIDTH 295 0
DWIDTH 15 0
BBX 10 40 2 0
BITMAP
FFC0
0080
0080
0080
0100
0100
0100
0200
0200
0600
0400
0400
0C00
0800
0800
1000
1000
3000
1E00
0100
0080
0080
0080
0080
0080
0080
8080
8080
8080
8080
8080
8080
8080
8080
8080
8080
8080
4080
4100
3F00
ENDCHAR
STARTCHAR four
ENCODING 52
SWIDTH 306 0
DWIDTH 15 0
BBX 11 40 1 0
BITMAP
0300
0300
0500
0500
0500
0500
0500
0900
0900
0900
0900
1100
1100
1100
1100
1100
2100
2100
2100
2100
2100
4100
4100
4100
4100
4100
FFE0
0100
0100
0100
0100
0100
0100
0100
0100
0100
0100
0100
0100
0100
ENDCHAR
STARTCHAR five
ENCODING 53
SWIDTH 300 0
DWIDTH 15 0
BBX 9 40 3 0
BITMAP
FF80
8000
8000
8000
8000
8000
8000
8000
8000
8000
8000
8000
8000
8000
8000
8000
8800
BF00
C100
C080
8080
0080
0080
0080
0080
0080
8080
8080
8080
8080
8080
8080
8080
8080
8080
8080
8080
8080
4100
3E00
ENDCHAR
STARTCHAR six
ENCODING 54
SWIDTH 292 0
DWIDTH 15 0
BBX 9 40 3 0
BITMAP
3E00
4100
8100
8080
8080
8080
8080
8080
8080
8080
8080
8080
8080
8000
8000
8000
8000
BF00
C100
8080
8080
8080
8080
8080
8080
8080
8080
8080
8080
8080
8080
8080
8080
8080
8080
8080
8080
8080
4100
7E00
ENDCHAR
STARTCHAR seven
ENCODING 55
SWIDTH 246 0
DWIDTH 12 0
BBX 9 40 2 0
BITMAP
FF80
0080
0180
0100
0100
0100
0100
0100
0200
0200
0200
0200
0200
0200
0400
0400
0400
0400
0400
0400
0800
0800
0800
0800
0800
0800
1000
1000
1000
1000
1000
1000
2000
2000
2000
2000
2000
6000
4000
4000
ENDCHAR
STARTCHAR eight
ENCODING 56
SWIDTH 290 0
DWIDTH 15 0
BBX 9 40 3 0
BITMAP
7E00
4100
8100
8100
8080
8080
8080
8080
8080
8080
8080
8080
8080
8080
8080
8100
8100
4100
3E00
3E00
4100
8100
8100
8080
8080
8080
8080
8080
8080
8080
8080
8080
8080
8080
8080
8080
8100
8100
4100
7E00
ENDCHAR
STARTCHAR nine
ENCODING 57
SWIDTH 291 0
DWIDTH 15 0
BBX 9 40 3 0
BITMAP
7E00
C100
8100
8100
8100
8100
8100
8180
8080
8080
8080
8080
8080
8080
8080
8080
8080
8080
8080
8080
8180
8180
C280
3C80
0080
0080
0080
8080
8080
8080
8080
8080
8080
8100
8100
8100
8100
8100
C100
7E00
ENDCHAR
STARTCHAR colon
ENCODING 58
SWIDTH 180 0
DWIDTH 9 0
BBX 5 18 2 0
BITMAP
F8
F8
F8
00
00
00
00
00
00
00
00
00
00
00
00
F8
F8
F8
ENDCHAR
STARTCHAR semicolon
ENCODING 59
SWIDTH 180 0
DWIDTH 9 0
BBX 5 22 2 -4
BITMAP
F8
F8
F8
00
00
00
00
00
00
00
00
00
00
00
00
F8
F8
F8
10
10
30
20
ENDCHAR
STARTCHAR less
ENCODING 60
SWIDTH 384 0
DWIDTH 19 0
BBX 13 7 3 17
BITMAP
0038
07C0
F800
8000
F000
0F80
0078
ENDCHAR
STARTCHAR equal
ENCODING 61
SWIDTH 366 0
DWIDTH 18 0
BBX 12 5 3 18
BITMAP
FFF0
0000
0000
0000
FFF0
ENDCHAR
STARTCHAR greater
ENCODING 62
SWIDTH 384 0
DWIDTH 19 0
BBX 13 7 3 17
BITMAP
F000
0F80
0078
0008
0038
0FC0
F000
ENDCHAR
STARTCHAR question
ENCODING 63
SWIDTH 259 0
DWIDTH 13 0
BBX 9 40 2 0
BITMAP
3E00
4100
4100
8100
8180
8180
8180
8180
8180
8180
8180
8180
8180
0180
0180
0180
0100
0100
0100
0100
0300
0C00
1000
1000
1000
1000
1000
1000
1000
1000
1000
1000
1000
1000
0000
0000
0000
7800
7800
7800
ENDCHAR
STARTCHAR at
ENCODING 64
SWIDTH 360 0
DWIDTH 18 0
BBX 12 40 3 -5
BITMAP
0600
3DC0
4020
8010
8010
8010
8010
8010
8010
8410
9A90
9190
9090
9090
9090
9090
9090
9090
9090
9090
9090
9090
9090
9090
9090
9090
9090
9090
9190
9A90
8460
8000
8010
8010
8010
8010
8010
4020
70E0
0F00
ENDCHAR
STARTCHAR A
ENCODING 65
SWIDTH 264 0
DWIDTH 13 0
BBX 11 40 1 0
BITMAP
0E00
0A00
0A00
0A00
0900
0900
1100
1100
1100
1100
1100
1100
1100
1100
1100
1080
1080
2080
2080
2080
2080
2080
2080
2080
2080
2080
3FC0
2040
2040
4040
4040
4040
4040
4040
4040
4040
4040
4040
4020
C020
ENDCHAR
STARTCHAR B
ENCODING 66
SWIDTH 279 0
DWIDTH 14 0
BBX 9 40 3 0
BITMAP
FE00
8300
8100
8100
8100
8100
8100
8100
8100
8100
8100
8100
8100
8100
8100
8100
8100
8100
8100
8E00
8E00
8100
8100
8100
8100
8100
8100
8080
8080
8080
8080
8080
8080
8100
8100
8100
8100
8100
8300
FE00
ENDCHAR
STARTCHAR C
ENCODING 67
SWIDTH 274 0
DWIDTH 14 0
BBX 9 40 3 0
BITMAP
7E00
C300
8100
8100
8100
8100
8100
8100
8100
8100
8100
8100
8100
8000
8000
8000
8000
8000
8000
8000
8000
8000
8000
8000
8000
8000
8180
8080
8080
8080
8080
8080
8080
8080
8080
8080
8100
8100
C100
7E00
ENDCHAR
STARTCHAR D
ENCODING 68
SWIDTH 286 0
DWIDTH 14 0
BBX 9 40 3 0
BITMAP
FE00
8300
8100
8180
8080
8080
8080
8080
8080
8080
8080
8080
8080
8080
8080
8080
8080
8080
8080
8080
8080
8080
8080
8080
8080
8080
8080
8080
8080
8080
8080
8080
8080
8080
8080
8080
8100
8100
8300
FE00
ENDCHAR
STARTCHAR E
ENCODING 69
SWIDTH 244 0
DWIDTH 12 0
BBX 8 40 3 0
BITMAP
FF
80
80
80
80
80
80
80
80
80
80
80
80
80
80
80
80
80
80
FE
80
80
80
80
80
80
80
80
80
80
80
80
80
80
80
80
80
80
80
FF
ENDCHAR
STARTCHAR F
ENCODING 70
SWIDTH 239 0
DWIDTH 12 0
BBX 8 40 3 0
BITMAP
FF
80
80
80
80
80
80
80
80
80
80
80
80
80
80
80
80
80
80
FE
80
80
80
80
80
80
80
80
80
80
80
80
80
80
80
80
80
80
80
80
ENDCHAR
STARTCHAR G
ENCODING 71
SWIDTH 272 0
DWIDTH 14 0
BBX 9 40 3 0
BITMAP
7E00
C300
8100
8100
8100
8100
8100
8100
8100
8100
8100
8100
8100
8000
8000
8000
8000
8000
8000
8000
8000
8000
8000
8000
8000
8F80
8180
8080
8080
8080
8080
8080
8080
8080
8180
8180
8100
8100
C100
7E00
ENDCHAR
STARTCHAR H
ENCODING 72
SWIDTH 300 0
DWIDTH 15 0
BBX 9 40 3 0
BITMAP
8080
8080
8080
8080
8080
8080
8080
8080
8080
8080
8080
8080
8080
8080
8080
8080
8080
8080
8080
8080
8080
8080
8080
8080
8080
8080
8080
8080
8080
8080
8080
8080
8080
8080
8080
8080
8080
8080
8080
8080
ENDCHAR
STARTCHAR I
ENCODING 73
SWIDTH 140 0
DWIDTH 7 0
BBX 1 40 3 0
BITMAP
80
80
80
80
80
80
80
80
80
80
80
80
80
80
80
80
80
80
80
80
80
80
80
80
80
80
80
80
80
80
80
80
80
80
80
80
80
80
80
80
ENDCHAR
STARTCHAR J
ENCODING 74
SWIDTH 257 0
DWIDTH 13 0
BBX 8 40 2 0
BITMAP
01
01
01
01
01
01
01
01
01
01
01
01
01
01
01
01
01
01
01
01
01
01
01
01
01
01
81
81
81
81
81
81
81
81
81
81
81
81
C3
7E
ENDCHAR
STARTCHAR K
ENCODING 75
SWIDTH 260 0
DWIDTH 13 0
BBX 9 40 3 0
BITMAP
8180
8100
8100
8300
8200
8200
8200
8400
8400
8400
8C00
8800
8800
8800
9000
9000
9000
A000
A000
A000
D000
D000
D000
D000
8800
8800
8800
8400
8400
8400
8600
8200
8200
8200
8100
8100
8100
8080
8080
8080
ENDCHAR
STARTCHAR L
ENCODING 76
SWIDTH 225 0
DWIDTH 11 0
BBX 8 40 3 0
BITMAP
80
80
80
80
80
80
80
80
80
80
80
80
80
80
80
80
80
80
80
80
80
80
80
80
80
80
80
80
80
80
80
80
80
80
80
80
80
80
80
FF
ENDCHAR
STARTCHAR M
ENCODING 77
SWIDTH 407 0
DWIDTH 20 0
BBX 14 40 3 0
BITMAP
E01C
A014
A014
A014
A014
A014
B014
9014
9014
9034
9024
9024
9024
9024
9024
9824
8824
8824
8824
8864
8844
8844
8844
8844
8844
8444
8444
8444
8444
8484
8484
8484
8484
8484
8484
8284
8284
8284
8284
8304
ENDCHAR
STARTCHAR N
ENCODING 78
SWIDTH 325 0
DWIDTH 16 0
BBX 10 40 3 0
BITMAP
E040
A040
A040
A040
A040
9040
9040
9040
9040
9040
9040
9040
8840
8840
8840
8840
8840
8840
8840
8440
8440
8440
8440
8440
8440
8440
8240
8240
8240
8240
8240
8240
8240
8140
8140
8140
8140
8140
8140
81C0
ENDCHAR
STARTCHAR O
ENCODING 79
SWIDTH 284 0
DWIDTH 14 0
BBX 9 40 3 0
BITMAP
7E00
C100
8100
8100
8080
8080
8080
8080
8080
8080
8080
8080
8080
8080
8080
8080
8080
8080
8080
8080
8080
8080
8080
8080
8080
8080
8080
8080
8080
8080
8080
8080
8080
8080
8080
8080
8180
8100
C100
7E00
ENDCHAR
STARTCHAR P
ENCODING 80
SWIDTH 258 0
DWIDTH 13 0
BBX 9 40 3 0
BITMAP
FC00
8300
8100
8100
8100
8100
8100
8100
8180
8180
8180
8180
8180
8180
8180
8100
8100
8100
8100
8100
8100
8200
FC00
8000
8000
8000
8000
8000
8000
8000
8000
8000
8000
8000
8000
8000
8000
8000
8000
8000
ENDCHAR
STARTCHAR Q
ENCODING 81
SWIDTH 284 0
DWIDTH 14 0
BBX 9 44 3 -4
BITMAP
7E00
C100
8100
8100
8080
8080
8080
8080
8080
8080
8080
8080
8080
8080
8080
8080
8080
8080
8080
8080
8080
8080
8080
8080
8080
8080
8080
8080
8080
8080
8080
8080
8080
8080
8080
8080
8100
8100
C100
7E00
0800
0800
0400
0300
ENDCHAR
STARTCHAR R
ENCODING 82
SWIDTH 274 0
DWIDTH 14 0
BBX 9 40 3 0
BITMAP
FC00
8300
8100
8100
8100
8100
8100
8100
8100
8180
8180
8180
8180
8180
8180
8180
8100
8100
8100
8100
8100
8100
8200
FC00
8400
8400
8400
8600
8200
8200
8200
8200
8100
8100
8100
8100
8180
8080
8080
8080
ENDCHAR
STARTCHAR S
ENCODING 83
SWIDTH 256 0
DWIDTH 13 0
BBX 9 40 2 0
BITMAP
7E00
4100
8100
8080
8080
8080
8080
8080
8080
8080
8080
8080
8080
8000
8000
8000
8000
8000
4000
7000
1E00
0300
0100
0080
0080
0080
8080
8080
8080
8080
8080
8080
8080
8080
8080
8080
8080
8180
4100
3E00
ENDCHAR
STARTCHAR T
ENCODING 84
SWIDTH 214 0
DWIDTH 11 0
BBX 10 40 0 0
BITMAP
FFC0
0400
0400
0400
0400
0400
0400
0400
0400
0400
0400
0400
0400
0400
0400
0400
0400
0400
0400
0400
0400
0400
0400
0400
0400
0400
0400
0400
0400
0400
0400
0400
0400
0400
0400
0400
0400
0400
0400
0400
ENDCHAR
STARTCHAR U
ENCODING 85
SWIDTH 277 0
DWIDTH 14 0
BBX 8 40 3 0
BITMAP
81
81
81
81
81
81
81
81
81
81
81
81
81
81
81
81
81
81
81
81
81
81
81
81
81
81
81
81
81
81
81
81
81
81
81
81
81
81
83
7E
ENDCHAR
STARTCHAR V
ENCODING 86
SWIDTH 259 0
DWIDTH 13 0
BBX 9 40 2 0
BITMAP
8080
8080
8080
8080
8080
8080
8080
8080
8180
4100
4100
4100
4100
4100
4100
4100
4100
4100
4100
4300
2200
2200
2200
2200
2200
2200
2200
2200
2200
2200
2200
1400
1400
1400
1400
1400
1400
1400
1400
1C00
ENDCHAR
STARTCHAR W
ENCODING 87
SWIDTH 391 0
DWIDTH 20 0
BBX 15 40 2 0
BITMAP
8382
8282
8282
8282
8282
8242
4242
4242
4242
4242
4242
4242
4242
4442
4442
4442
4442
4442
4444
4444
4444
4444
4424
4424
4424
4424
4424
4424
2424
2424
2824
2824
2824
2824
2824
2824
2824
2824
2828
3818
ENDCHAR
STARTCHAR X
ENCODING 88
SWIDTH 234 0
DWIDTH 12 0
BBX 10 40 1 0
BITMAP
8080
4080
4080
4080
4080
4080
4100
4100
2100
2100
2100
2100
2200
2200
1200
1200
1200
1200
1400
0C00
1400
1400
1200
1200
1200
1200
2200
2100
2100
2100
2100
4100
4100
4080
4080
4080
4080
8080
8080
8040
ENDCHAR
STARTCHAR Y
ENCODING 89
SWIDTH 244 0
DWIDTH 12 0
BBX 10 40 1 0
BITMAP
8040
C040
40C0
4080
4080
4080
4080
4080
2080
2180
2100
2100
2100
2100
2100
1100
1200
1200
1200
1200
1200
1200
0A00
0C00
0C00
0C00
0C00
0C00
0400
0400
0400
0400
0400
0400
0400
0400
0400
0400
0400
0400
ENDCHAR
STARTCHAR Z
ENCODING 90
SWIDTH 239 0
DWIDTH 12 0
BBX 10 40 1 0
BITMAP
7FC0
0040
00C0
0080
0080
0080
0080
0100
0100
0100
0100
0200
0200
0200
0200
0600
0400
0400
0400
0400
0800
0800
0800
0800
1000
1000
1000
1000
3000
2000
2000
2000
2000
4000
4000
4000
4000
8000
8000
FF80
ENDCHAR
STARTCHAR bracketleft
ENCODING 91
SWIDTH 189 0
DWIDTH 9 0
BBX 5 50 3 -10
BITMAP
F8
80
80
80
80
80
80
80
80
80
80
80
80
80
80
80
80
80
80
80
80
80
80
80
80
80
80
80
80
80
80
80
80
80
80
80
80
80
80
80
80
80
80
80
80
80
80
80
80
F8
ENDCHAR
STARTCHAR backslash
ENCODING 92
SWIDTH 280 0
DWIDTH 14 0
BBX 12 50 1 -10
BITMAP
C000
4000
4000
4000
4000
2000
2000
2000
2000
2000
1000
1000
1000
1000
1000
0800
0800
0800
0800
0800
0400
0400
0400
0400
0400
0200
0200
0200
0200
0200
0100
0100
0100
0100
0100
0080
0080
0080
0080
0080
0040
0040
0040
0040
0040
0020
0020
0020
0020
0030
ENDCHAR
STARTCHAR bracketright
ENCODING 93
SWIDTH 189 0
DWIDTH 9 0
BBX 5 50 1 -10
BITMAP
F8
08
08
08
08
08
08
08
08
08
08
08
08
08
08
08
08
08
08
08
08
08
08
08
08
08
08
08
08
08
08
08
08
08
08
08
08
08
08
08
08
08
08
08
08
08
08
08
08
F8
ENDCHAR
STARTCHAR asciicircum
ENCODING 94
SWIDTH 305 0
DWIDTH 15 0
BBX 9 11 3 24
BITMAP
0800
0C00
1400
1400
3200
2200
2100
4100
4100
C080
8080
ENDCHAR
STARTCHAR underscore
ENCODING 95
SWIDTH 656 0
DWIDTH 33 0
BBX 30 1 1 -3
BITMAP
FFFFFFFC
ENDCHAR
STARTCHAR grave
ENCODING 96
SWIDTH 196 0
DWIDTH 10 0
BBX 4 5 3 32
BITMAP
80
40
40
20
30
ENDCHAR
STARTCHAR a
ENCODING 97
SWIDTH 270 0
DWIDTH 14 0
BBX 9 30 2 0
BITMAP
3E00
4100
8100
8080
8080
8080
8080
8080
8080
8080
0080
0080
0180
0680
0880
1080
2080
4080
4080
8080
8080
8080
8080
8080
8080
8080
8180
8180
4280
3C80
ENDCHAR
STARTCHAR b
ENCODING 98
SWIDTH 284 0
DWIDTH 14 0
BBX 9 40 3 0
BITMAP
8000
8000
8000
8000
8000
8000
8000
8000
8000
8000
9F00
A100
C080
8080
8080
8080
8080
8080
8080
8080
8080
8080
8080
8080
8080
8080
8080
8080
8080
8080
8080
8080
8080
8080
8080
8080
8080
C180
A100
9F00
ENDCHAR
STARTCHAR c
ENCODING 99
SWIDTH 267 0
DWIDTH 13 0
BBX 9 30 2 0
BITMAP
3F00
4080
4080
4080
C080
8080
8080
8080
8080
8080
8000
8000
8000
8000
8000
8000
8000
8000
8000
8000
8080
8080
8080
8080
8080
8080
4080
4080
4080
3F00
ENDCHAR
STARTCHAR d
ENCODING 100
SWIDTH 284 0
DWIDTH 14 0
BBX 9 40 2 0
BITMAP
0080
0080
0080
0080
0080
0080
0080
0080
0080
0080
3E80
4180
4180
C080
8080
8080
8080
8080
8080
8080
8080
8080
8080
8080
8080
8080
8080
8080
8080
8080
8080
8080
8080
8080
8080
8080
4080
4180
4180
3E80
ENDCHAR
STARTCHAR e
ENCODING 101
SWIDTH 270 0
DWIDTH 14 0
BBX 9 30 2 0
BITMAP
3F00
4180
4080
4080
C080
8080
8080
8080
8080
8080
8080
8080
8080
8080
FF80
8000
8000
8000
8000
8000
8080
8080
8080
8080
8080
8080
4080
4080
4180
3F00
ENDCHAR
STARTCHAR f
ENCODING 102
SWIDTH 180 0
DWIDTH 9 0
BBX 9 40 1 0
BITMAP
1F80
3000
2000
2000
2000
2000
2000
2000
2000
2000
FF00
2000
2000
2000
2000
2000
2000
2000
2000
2000
2000
2000
2000
2000
2000
2000
2000
2000
2000
2000
2000
2000
2000
2000
2000
2000
2000
2000
2000
2000
ENDCHAR
STARTCHAR g
ENCODING 103
SWIDTH 298 0
DWIDTH 15 0
BBX 12 37 2 -7
BITMAP
3F10
60A0
40C0
40C0
4040
4040
4040
4040
4040
4040
4040
4040
4040
4040
4040
4040
4040
4040
4040
4040
4080
4080
3F00
3800
4000
4000
4000
4000
3E00
61C0
8040
8020
8020
8020
8040
C0C0
3F00
ENDCHAR
STARTCHAR h
ENCODING 104
SWIDTH 293 0
DWIDTH 15 0
BBX 9 40 3 0
BITMAP
8000
8000
8000
8000
8000
8000
8000
8000
8000
8000
9F00
A100
C080
8080
8080
8080
8080
8080
8080
8080
8080
8080
8080
8080
8080
8080
8080
8080
8080
8080
8080
8080
8080
8080
8080
8080
8080
8080
8080
8080
ENDCHAR
STARTCHAR i
ENCODING 105
SWIDTH 140 0
DWIDTH 7 0
BBX 5 40 1 0
BITMAP
F8
F8
F8
00
00
00
00
00
00
00
20
20
20
20
20
20
20
20
20
20
20
20
20
20
20
20
20
20
20
20
20
20
20
20
20
20
20
20
20
20
ENDCHAR
STARTCHAR j
ENCODING 106
SWIDTH 139 0
DWIDTH 7 0
BBX 9 50 -3 -10
BITMAP
0780
0780
0780
0000
0000
0000
0000
0000
0000
0000
0200
0200
0200
0200
0200
0200
0200
0200
0200
0200
0200
0200
0200
0200
0200
0200
0200
0200
0200
0200
0200
0200
0200
0200
0200
0200
0200
0200
0200
0200
0200
0200
0200
0200
0200
0200
0200
0200
0400
F800
ENDCHAR
STARTCHAR k
ENCODING 107
SWIDTH 248 0
DWIDTH 12 0
BBX 9 40 3 0
BITMAP
8000
8000
8000
8000
8000
8000
8000
8000
8000
8000
8300
8200
8200
8400
8400
8400
8800
8800
8800
9000
9000
9000
A000
A000
B000
D000
D000
8800
8800
8800
8400
8400
8400
8200
8200
8200
8100
8100
8100
8080
ENDCHAR
STARTCHAR l
ENCODING 108
SWIDTH 140 0
DWIDTH 7 0
BBX 1 40 3 0
BITMAP
80
80
80
80
80
80
80
80
80
80
80
80
80
80
80
80
80
80
80
80
80
80
80
80
80
80
80
80
80
80
80
80
80
80
80
80
80
80
80
80
ENDCHAR
STARTCHAR m
ENCODING 109
SWIDTH 448 0
DWIDTH 22 0
BBX 17 30 3 0
BITMAP
9F3E00
A14100
C08100
808100
808180
808180
808180
808180
808180
808180
808180
808180
808180
808180
808180
808180
808180
808180
808180
808180
808180
808180
808180
808180
808180
808180
808180
808180
808180
808180
ENDCHAR
STARTCHAR n
ENCODING 110
SWIDTH 293 0
DWIDTH 15 0
BBX 9 30 3 0
BITMAP
9F00
A100
C080
8080
8080
8080
8080
8080
8080
8080
8080
8080
8080
8080
8080
8080
8080
8080
8080
8080
8080
8080
8080
8080
8080
8080
8080
8080
8080
8080
ENDCHAR
STARTCHAR o
ENCODING 111
SWIDTH 278 0
DWIDTH 14 0
BBX 10 30 2 0
BITMAP
3F00
4080
4080
4080
4080
C080
8080
8080
8080
8080
8080
8080
8040
8040
8040
8040
8040
8080
8080
8080
8080
8080
8080
8080
C080
4080
4080
4080
4080
3F00
ENDCHAR
STARTCHAR p
ENCODING 112
SWIDTH 284 0
DWIDTH 14 0
BBX 9 40 3 -10
BITMAP
9F00
A100
C080
8080
8080
8080
8080
8080
8080
8080
8080
8080
8080
8080
8080
8080
8080
8080
8080
8080
8080
8080
8080
8080
8080
8080
8080
C180
A100
9F00
8000
8000
8000
8000
8000
8000
8000
8000
8000
8000
ENDCHAR
STARTCHAR q
ENCODING 113
SWIDTH 285 0
DWIDTH 14 0
BBX 9 40 2 -10
BITMAP
3E80
4180
4080
4080
C080
8080
8080
8080
8080
8080
8080
8080
8080
8080
8080
8080
8080
8080
8080
8080
8080
8080
8080
8080
8080
8080
4080
4180
4180
3E80
0080
0080
0080
0080
0080
0080
0080
0080
0080
0080
ENDCHAR
STARTCHAR r
ENCODING 114
SWIDTH 192 0
DWIDTH 10 0
BBX 6 30 3 0
BITMAP
9C
A0
C0
80
80
80
80
80
80
80
80
80
80
80
80
80
80
80
80
80
80
80
80
80
80
80
80
80
80
80
ENDCHAR
STARTCHAR s
ENCODING 115
SWIDTH 257 0
DWIDTH 13 0
BBX 9 30 2 0
BITMAP
3E00
4100
C100
8080
8080
8080
8080
8080
8080
8080
8000
4000
4000
6000
1800
0600
0100
0100
0180
0080
8080
8080
8080
8080
8080
8080
8080
8100
4100
7E00
ENDCHAR
STARTCHAR t
ENCODING 116
SWIDTH 180 0
DWIDTH 9 0
BBX 8 39 1 0
BITMAP
20
20
20
20
20
20
20
20
20
FE
20
20
20
20
20
20
20
20
20
20
20
20
20
20
20
20
20
20
20
20
20
20
20
20
20
20
20
20
1F
ENDCHAR
STARTCHAR u
ENCODING 117
SWIDTH 291 0
DWIDTH 15 0
BBX 9 30 3 0
BITMAP
8080
8080
8080
8080
8080
8080
8080
8080
8080
8080
8080
8080
8080
8080
8080
8080
8080
8080
8080
8080
8080
8080
8080
8080
8080
8080
8180
8180
C280
7C80
ENDCHAR
STARTCHAR v
ENCODING 118
SWIDTH 242 0
DWIDTH 12 0
BBX 10 30 1 0
BITMAP
C040
40C0
4080
4080
4080
4080
4080
4080
4080
4080
4080
2080
2100
2100
2100
2100
2100
2100
2100
2100
2100
1200
1200
1200
1200
1200
1200
1200
1200
1E00
ENDCHAR
STARTCHAR w
ENCODING 119
SWIDTH 384 0
DWIDTH 19 0
BBX 17 30 1 0
BITMAP
81C080
814080
414080
414080
414100
412100
412100
422100
422100
422100
422100
422100
422100
422100
222100
222100
221100
221200
221200
241200
241200
241200
241200
241200
241200
241200
141200
141200
141400
1C1C00
ENDCHAR
STARTCHAR x
ENCODING 120
SWIDTH 214 0
DWIDTH 11 0
BBX 9 30 1 0
BITMAP
8080
8100
8100
4100
4100
4100
4200
4200
2200
2200
2200
2400
2400
1400
1C00
1400
1400
2400
2400
2200
2200
2200
4200
4200
4100
4100
4100
8100
8080
8080
ENDCHAR
STARTCHAR y
ENCODING 121
SWIDTH 257 0
DWIDTH 13 0
BBX 11 40 0 -10
BITMAP
2020
2020
2020
2020
1020
1020
1020
1020
1040
1040
1040
1040
1040
1040
1040
0840
0840
0880
0880
0880
0880
0880
0880
0880
0880
0500
0500
0500
0500
0700
0100
0100
0100
0100
0200
0200
0200
0200
0400
F800
ENDCHAR
STARTCHAR z
ENCODING 122
SWIDTH 212 0
DWIDTH 11 0
BBX 9 30 1 0
BITMAP
FF80
0080
0100
0100
0100
0300
0200
0200
0200
0400
0400
0400
0C00
0800
0800
0800
1800
1000
1000
1000
2000
2000
2000
6000
4000
4000
4000
8000
8000
FF00
ENDCHAR
STARTCHAR braceleft
ENCODING 123
SWIDTH 230 0
DWIDTH 12 0
BBX 9 50 1 -10
BITMAP
0380
0400
0800
1000
1000
1000
3000
3000
1000
1000
1000
1000
1000
1000
1000
1000
1000
1000
1000
1000
1000
1000
3000
6000
C000
C000
6000
3000
1000
1000
1000
1000
1000
1000
1000
1000
1000
1000
1000
1000
1000
1000
3000
3000
1000
1000
1000
0800
0400
0380
ENDCHAR
STARTCHAR bar
ENCODING 124
SWIDTH 140 0
DWIDTH 7 0
BBX 1 52 3 -6
BITMAP
80
80
80
80
80
80
80
80
80
80
80
80
80
80
80
80
80
80
80
80
80
80
80
80
80
80
80
80
80
80
80
80
80
80
80
80
80
80
80
80
80
80
80
80
80
80
80
80
80
80
80
80
ENDCHAR
STARTCHAR braceright
ENCODING 125
SWIDTH 210 0
DWIDTH 11 0
BBX 9 50 0 -10
BITMAP
E000
1800
0C00
0400
0200
0200
0200
0200
0200
0200
0200
0200
0200
0200
0200
0200
0200
0200
0200
0600
0200
0200
0200
0380
0080
0080
0380
0200
0200
0200
0600
0200
0200
0200
0200
0200
0200
0200
0200
0200
0200
0200
0200
0200
0200
0200
0400
0C00
1800
E000
ENDCHAR
STARTCHAR asciitilde
ENCODING 126
SWIDTH 414 0
DWIDTH 21 0
BBX 15 4 3 18
BITMAP
3E02
4104
80CC
8070
ENDCHAR
STARTCHAR section
ENCODING 167
SWIDTH 294 0
DWIDTH 15 0
BBX 9 50 3 -10
BITMAP
7E00
4100
8100
8100
8100
8100
8100
8100
8100
8100
8000
8000
8000
4000
3000
3E00
4100
C100
8100
8080
8080
8080
8080
8080
8080
8080
8080
8080
8080
8080
8080
8100
C100
4300
3E00
0200
0100
0100
0100
0180
8080
8080
8080
8080
8080
8180
8100
8100
4100
7E00
ENDCHAR
STARTCHAR copyright
ENCODING 169
SWIDTH 576 0
DWIDTH 29 0
BBX 23 30 3 0
BITMAP
01FF00
0E00C0
180020
300010
207E08
608208
410104
410104
410104
810104
810102
810002
810002
810002
810002
810002
810002
810002
810002
810102
810104
410104
410104
410104
608208
20EE08
301010
180020
0E00C0
01FF00
ENDCHAR
STARTCHAR degree
ENCODING 176
SWIDTH 339 0
DWIDTH 17 0
BBX 11 11 3 30
BITMAP
0400
3F80
60C0
4040
8020
8020
8020
8020
4040
60C0
3F80
ENDCHAR
ENDFONT
